<?xml version="1.0" encoding="UTF-8" standalone="no"?>
<svg width="18px" height="19px" viewBox="0 0 18 19" version="1.1" xmlns="http://www.w3.org/2000/svg" xmlns:xlink="http://www.w3.org/1999/xlink" xmlns:sketch="http://www.bohemiancoding.com/sketch/ns">
    <!-- Generator: Sketch 3.4.3 (16044) - http://www.bohemiancoding.com/sketch -->
    <title>Rectangle 47</title>
    <desc>Created with Sketch.</desc>
    <defs></defs>
    <g id="Page-1" stroke="none" stroke-width="1" fill="none" fill-rule="evenodd" sketch:type="MSPage">
        <g id="apt-finder_results" sketch:type="MSArtboardGroup" transform="translate(-132.000000, -1067.000000)" fill="#D8D8D8">
            <g id="content" sketch:type="MSLayerGroup" transform="translate(100.000000, 646.000000)">
                <g id="amenities" transform="translate(0.000000, 327.000000)" sketch:type="MSShapeGroup">
                    <g id="Rectangle-47-+-2-Bathrooms" transform="translate(32.000000, 91.000000)">
                        <path d="M0,14 L18,14 L18,16.5 C18,17.8807119 16.8740194,19 15.4971771,19 L2.50282288,19 C1.12055197,19 0,17.8903379 0,16.5 L0,14 Z M12,12 C12,11.4477153 12.4426603,11 12.9989566,11 L14.0010434,11 C14.5527519,11 15,11.4438648 15,12 L15,13 L12,13 L12,12 Z M8,10 L10,10 L10,14 L8,14 L8,10 Z M3,12 C3,11.4477153 3.44266033,11 3.99895656,11 L5.00104344,11 C5.55275191,11 6,11.4438648 6,12 L6,13 L3,13 L3,12 Z M10,6.50016487 C10,5.67164669 10.6657972,5 11.5,5 C12.3284271,5 13,5.67432225 13,6.50016487 L13,10 L10,10 L10,6.50016487 Z M8,6.5 C8,4.56700338 9.57093664,3 11.5,3 L11.5,3 C13.4329966,3 15,4.57093664 15,6.5 L15,10 L8,10 L8,6.5 Z M13,8 L15,8 L15,10 L13,10 L13,8 Z M5,19 L13,19 L13,22 L5,22 L5,19 Z" id="Rectangle-47"></path>
                    </g>
                </g>
            </g>
        </g>
    </g>
</svg>