<?xml version="1.0" encoding="UTF-8" standalone="no"?>
<svg width="22px" height="15px" viewBox="0 0 22 15" version="1.1" xmlns="http://www.w3.org/2000/svg" xmlns:xlink="http://www.w3.org/1999/xlink" xmlns:sketch="http://www.bohemiancoding.com/sketch/ns">
    <!-- Generator: Sketch 3.4.3 (16044) - http://www.bohemiancoding.com/sketch -->
    <title>Shape</title>
    <desc>Created with Sketch.</desc>
    <defs></defs>
    <g id="Page-1" stroke="none" stroke-width="1" fill="none" fill-rule="evenodd" sketch:type="MSPage">
        <g id="apt-finder_results" sketch:type="MSArtboardGroup" transform="translate(-131.000000, -1030.000000)" fill="#D8D8D8">
            <g id="content" sketch:type="MSLayerGroup" transform="translate(100.000000, 646.000000)">
                <g id="amenities" transform="translate(0.000000, 327.000000)" sketch:type="MSShapeGroup">
                    <g id="Shape-+-4-Bedrooms" transform="translate(31.000000, 50.000000)">
                        <path d="M6,15 C7.66,15 9,13.66 9,12 C9,10.34 7.66,9 6,9 C4.34,9 3,10.34 3,12 C3,13.66 4.34,15 6,15 L6,15 Z M18,9 L10,9 L10,16 L2,16 L2,7 L0,7 L0,22 L2,22 L2,19 L20,19 L20,22 L22,22 L22,13 C22,10.79 20.21,9 18,9 L18,9 Z" id="Shape"></path>
                    </g>
                </g>
            </g>
        </g>
    </g>
</svg>