<?xml version="1.0" encoding="UTF-8" standalone="no"?>
<svg width="18px" height="10px" viewBox="0 0 18 10" version="1.1" xmlns="http://www.w3.org/2000/svg" xmlns:xlink="http://www.w3.org/1999/xlink" xmlns:sketch="http://www.bohemiancoding.com/sketch/ns">
    <!-- Generator: Sketch 3.4.3 (16044) - http://www.bohemiancoding.com/sketch -->
    <title>Shape</title>
    <desc>Created with Sketch.</desc>
    <defs></defs>
    <g id="Page-1" stroke="none" stroke-width="1" fill="none" fill-rule="evenodd" sketch:type="MSPage">
        <g id="apt-finder_list" sketch:type="MSArtboardGroup" transform="translate(-1127.000000, -475.000000)" fill="#222222">
            <g id="content" sketch:type="MSLayerGroup" transform="translate(416.000000, 458.000000)">
                <g id="sort-+-toggle" transform="translate(431.000000, 0.000000)" sketch:type="MSShapeGroup">
                    <g id="toggle" transform="translate(245.000000, 0.000000)">
                        <path d="M35,23 L37,23 L37,21 L35,21 L35,23 L35,23 Z M35,27 L37,27 L37,25 L35,25 L35,27 L35,27 Z M35,19 L37,19 L37,17 L35,17 L35,19 L35,19 Z M39,23 L53,23 L53,21 L39,21 L39,23 L39,23 Z M39,27 L53,27 L53,25 L39,25 L39,27 L39,27 Z M39,17 L39,19 L53,19 L53,17 L39,17 L39,17 Z" id="Shape"></path>
                    </g>
                </g>
            </g>
        </g>
    </g>
</svg>