<?xml version="1.0" encoding="UTF-8" standalone="no"?>
<svg width="16px" height="20px" viewBox="0 0 16 20" version="1.1" xmlns="http://www.w3.org/2000/svg" xmlns:xlink="http://www.w3.org/1999/xlink" xmlns:sketch="http://www.bohemiancoding.com/sketch/ns">
    <!-- Generator: Sketch 3.4.3 (16044) - http://www.bohemiancoding.com/sketch -->
    <title>Shape</title>
    <desc>Created with Sketch.</desc>
    <defs></defs>
    <g id="Page-1" stroke="none" stroke-width="1" fill="none" fill-rule="evenodd" sketch:type="MSPage">
        <g id="apt-finder_results" sketch:type="MSArtboardGroup" transform="translate(-134.000000, -1104.000000)" fill="#D8D8D8">
            <g id="content" sketch:type="MSLayerGroup" transform="translate(100.000000, 646.000000)">
                <g id="amenities" transform="translate(0.000000, 327.000000)" sketch:type="MSShapeGroup">
                    <g id="Shape-+-Washer/Dryer:-On-Pre" transform="translate(34.000000, 129.000000)">
                        <path d="M5.17,16.83 C6.73,18.39 9.27,18.39 10.83,16.83 C12.39,15.27 12.39,12.73 10.83,11.17 L5.17,16.83 L5.17,16.83 Z M14,2.01 L2,2 C0.89,2 0,2.89 0,4 L0,20 C0,21.11 0.89,22 2,22 L14,22 C15.11,22 16,21.11 16,20 L16,4 C16,2.89 15.11,2.01 14,2.01 L14,2.01 Z M6,4 C6.55,4 7,4.45 7,5 C7,5.55 6.55,6 6,6 C5.45,6 5,5.55 5,5 C5,4.45 5.45,4 6,4 L6,4 Z M3,4 C3.55,4 4,4.45 4,5 C4,5.55 3.55,6 3,6 C2.45,6 2,5.55 2,5 C2,4.45 2.45,4 3,4 L3,4 Z M8,20 C4.69,20 2,17.31 2,14 C2,10.69 4.69,8 8,8 C11.31,8 14,10.69 14,14 C14,17.31 11.31,20 8,20 L8,20 Z" id="Shape"></path>
                    </g>
                </g>
            </g>
        </g>
    </g>
</svg>